<svg width="1005" height="837" viewBox="0 0 1005 837" fill="none" xmlns="http://www.w3.org/2000/svg">
<g opacity="0.5">
<path d="M163.196 353.526C177.529 196.344 321.354 96.5566 429.409 98.5638C553.929 100.896 600.86 237.871 695.621 196.209C782.096 158.236 787.191 24.6791 850.765 3.63119C909.19 -15.7079 1001.64 65.039 1154 464.732" stroke="#302E2E" stroke-miterlimit="10"/>
<path d="M1146.74 482.443C996.229 88.5266 903.725 4.66044 844.471 20.4192C800.554 32.1909 783.63 97.0434 749.269 147.737C732.119 173.833 711.025 192.967 687.881 203.422C612.072 237.761 566.887 161.76 485.877 129.158C465.229 120.752 444.009 116.109 422.656 115.325C314.161 110.795 171.94 197.292 155.386 348.75" stroke="#302E2E" stroke-miterlimit="10"/>
<path d="M1139.46 500.102C990.8 111.991 898.296 25.0323 838.336 37.2379C794.261 46.2158 776.332 107.976 741.9 156.093C724.34 181.25 703.277 199.906 680.319 210.639C605.603 245.547 560.435 177.087 479.143 146.004C458.485 138.037 437.345 133.383 416.063 132.116C307.11 125.579 166.511 198.244 147.735 343.979" stroke="#302E2E" stroke-miterlimit="10"/>
<path d="M1132.19 517.705C985.422 135.479 892.865 45.4562 832.129 54.0273C787.861 60.2657 768.997 118.88 734.442 164.447C716.508 188.651 695.493 206.839 672.737 217.854C599.044 253.331 554.052 192.385 472.39 162.847C451.712 155.249 430.628 150.556 409.398 148.824C300.004 139.982 161.027 199.111 140.03 339.123" stroke="#302E2E" stroke-miterlimit="10"/>
<path d="M1124.93 535.444C980.009 158.941 887.47 65.9074 825.906 70.8438C781.496 74.3699 761.609 129.838 726.949 172.774C708.629 196.037 687.624 213.778 665.033 225.069C592.362 261.116 547.494 207.709 465.426 179.691C444.771 172.537 423.788 167.839 402.663 165.641C292.811 154.493 155.456 200.115 132.22 334.404" stroke="#302E2E" stroke-miterlimit="10"/>
<path d="M1117.73 553.128C974.614 182.403 882.022 83.7271 819.682 87.6329C775.184 90.3452 754.222 140.605 719.491 181.128C700.795 203.408 679.799 220.7 657.381 232.283C585.733 268.9 541.023 223.034 458.674 196.561C438.025 189.779 417.113 185.049 396.07 182.403C285.759 168.841 150.026 201.037 124.568 329.63" stroke="#302E2E" stroke-miterlimit="10"/>
<path d="M1110.39 570.813C969.205 205.892 876.683 106.999 813.48 104.287C768.84 102.714 746.803 151.536 712.019 189.509C692.967 210.799 671.979 227.652 649.733 239.525C579.107 276.712 534.503 238.359 451.854 213.432C431.21 207.055 410.368 202.311 389.409 199.22C278.639 183.352 144.528 201.932 116.849 324.883" stroke="#302E2E" stroke-miterlimit="10"/>
<path d="M1103.12 588.497C963.842 229.353 871.303 127.396 807.253 121.239C762.508 116.845 739.343 162.222 704.541 197.836C685.148 218.115 664.159 234.52 642.078 246.658C572.493 284.441 527.995 253.656 445.028 230.194C425.723 224.769 405.114 219.562 382.741 215.9C271.496 197.646 139.025 202.908 109.124 320.082" stroke="#302E2E" stroke-miterlimit="10"/>
<path d="M1095.86 606.181C958.397 252.842 865.927 148.091 801.049 137.974C756.181 131.003 731.869 172.936 697.032 206.135C677.298 225.392 656.296 241.385 634.375 253.846C565.813 292.198 521.456 268.899 438.154 247.038C418.761 241.938 398.205 236.785 376.008 232.662C264.446 212.048 133.526 203.857 101.404 315.28" stroke="#302E2E" stroke-miterlimit="10"/>
<path d="M1088.58 623.839C952.983 276.305 860.549 168.732 794.825 154.845C749.851 145.325 724.305 183.705 689.609 214.517C669.56 232.741 648.547 248.329 626.794 261.115C559.236 300.038 515.002 284.279 431.383 263.828C411.99 259.054 391.416 253.9 369.396 249.344C257.252 226.234 128.024 204.644 93.6812 310.372" stroke="#302E2E" stroke-miterlimit="10"/>
<path d="M1081.31 641.525C947.587 299.767 855.171 189.429 788.653 171.635C743.573 159.593 716.864 194.365 682.168 222.899C661.808 240.051 640.769 255.224 619.176 268.331C552.658 307.823 508.548 299.577 424.594 280.808C405.113 276.414 384.592 271.233 362.766 266.27C250.164 240.665 122.576 205.73 85.9757 305.734" stroke="#302E2E" stroke-miterlimit="10"/>
<path d="M1074.05 659.21C942.175 323.257 849.758 210.124 782.394 188.425C737.191 173.887 709.301 204.998 674.675 231.253C654.771 246.334 634.391 261.551 611.49 275.546C545.994 315.581 502.007 314.903 417.736 297.652C398.202 293.611 377.716 288.403 356.031 283.032C242.97 254.932 117.004 206.652 78.2008 300.961" stroke="#302E2E" stroke-miterlimit="10"/>
<path d="M1066.78 676.893C936.762 346.826 844.469 230.873 776.189 205.241C730.862 188.18 701.737 215.575 667.2 239.606C646.82 253.792 626.387 268.574 603.838 282.76C539.365 323.445 495.52 330.199 410.913 314.495C391.326 310.833 370.858 305.598 349.402 299.794C235.901 269.144 111.539 207.573 70.5141 296.186" stroke="#302E2E" stroke-miterlimit="10"/>
<path d="M1059.56 694.578C931.369 370.207 838.988 251.65 769.984 222.058C724.534 202.556 694.176 226.126 659.727 247.988C638.853 261.224 618.384 275.6 596.259 290.002C532.791 331.176 489.104 345.552 404.092 331.393C384.435 328.057 364.019 322.795 342.74 316.611C228.78 283.357 106.04 208.496 62.7938 291.413" stroke="#302E2E" stroke-miterlimit="10"/>
<path d="M1052.24 712.235C925.952 393.669 833.624 272.48 763.756 238.847C718.165 216.877 686.59 236.596 652.264 256.315C630.897 268.575 610.358 282.597 588.532 297.19C526.122 338.933 482.523 360.822 397.265 348.209C376.708 344.838 356.278 339.85 336.053 333.264C221.67 297.543 100.482 209.472 55.067 286.612" stroke="#302E2E" stroke-miterlimit="10"/>
<path d="M1044.97 729.919C920.542 417.157 828.126 293.23 757.606 255.636C711.874 231.225 679.065 247.038 644.775 264.668C622.913 275.925 602.339 289.595 580.884 304.405C519.478 346.717 476.021 376.146 390.48 365.053C369.942 362.092 349.549 357.1 329.427 350.108C214.568 311.565 95.0372 210.394 47.3305 281.729" stroke="#302E2E" stroke-miterlimit="10"/>
<path d="M1037.71 747.604C915.149 440.619 822.627 314.169 751.332 272.426C705.494 245.628 671.433 257.427 637.319 272.996C614.964 283.221 594.355 296.62 573.252 311.62C512.887 354.502 469.534 391.444 383.624 381.897C363.104 379.311 342.746 374.287 322.73 366.87C207.483 325.778 89.5382 211.344 39.6102 277.064" stroke="#302E2E" stroke-miterlimit="10"/>
<path d="M1030.43 765.288C909.735 464.216 817.266 335.027 745.124 289.242C699.092 260.003 663.85 267.76 629.859 281.349C606.94 290.49 586.349 303.618 565.598 318.834C506.256 362.232 463.045 406.769 376.799 398.767C356.3 396.54 335.974 391.484 316.064 383.659C200.393 339.882 84.0357 212.265 31.8862 272.29" stroke="#302E2E" stroke-miterlimit="10"/>
<path d="M1023.17 782.973C904.414 487.57 811.803 355.939 738.903 306.14C692.713 274.514 656.289 278.176 622.387 289.866C599.027 298.003 578.312 310.805 557.949 326.211C499.63 370.233 456.542 422.256 369.979 415.719C349.503 413.851 329.205 408.761 309.402 400.53C193.309 354.04 78.4498 213.377 24.1671 267.624" stroke="#302E2E" stroke-miterlimit="10"/>
<path d="M1015.91 800.658C898.93 511.06 806.32 376.852 732.698 322.849C686.313 288.809 648.726 288.321 614.912 298.058C591.059 304.947 570.326 317.668 550.298 333.319C493.018 377.91 450.054 437.446 363.156 432.51C342.702 431.014 322.428 425.89 302.738 417.239C186.239 367.955 73.0374 214.138 16.4452 262.743" stroke="#302E2E" stroke-miterlimit="10"/>
<path d="M1008.62 818.315C893.516 534.521 800.835 397.9 726.543 339.638C679.982 303.238 641.249 298.546 607.523 306.412C583.176 312.081 562.39 324.666 542.733 340.452C486.458 385.64 443.617 452.716 356.402 449.299C335.967 448.148 315.711 442.989 296.125 433.947C179.309 381.653 67.6051 215.087 8.75631 257.942" stroke="#302E2E" stroke-miterlimit="10"/>
<path d="M1001.38 836C817.602 384.799 687.705 299.034 599.978 314.766C504.212 331.935 467.665 468.665 349.509 466.17C210.902 463.214 72.3838 209.716 1.0001 253.168" stroke="#302E2E" stroke-miterlimit="10"/>
</g>
</svg>
